<mxfile host="Electron" agent="Mozilla/5.0 (Windows NT 10.0; Win64; x64) AppleWebKit/537.36 (KHTML, like Gecko) draw.io/26.2.2 Chrome/134.0.6998.178 Electron/35.1.2 Safari/537.36" version="26.2.2">
  <diagram name="第 1 页" id="lemBvDQb4xRDyBXEtU3K">
    <mxGraphModel dx="1283" dy="674" grid="1" gridSize="10" guides="1" tooltips="1" connect="1" arrows="1" fold="1" page="1" pageScale="1" pageWidth="827" pageHeight="1169" math="0" shadow="0">
      <root>
        <mxCell id="0" />
        <mxCell id="1" parent="0" />
        <mxCell id="9Txfp773ptTtSIk96ITa-1" value="1" style="ellipse;whiteSpace=wrap;html=1;" parent="1" vertex="1">
          <mxGeometry x="286" y="20" width="20" height="20" as="geometry" />
        </mxCell>
        <mxCell id="9Txfp773ptTtSIk96ITa-2" value="clear_screen()" style="whiteSpace=wrap;html=1;" parent="1" vertex="1">
          <mxGeometry x="46" y="110" width="120" height="60" as="geometry" />
        </mxCell>
        <mxCell id="9Txfp773ptTtSIk96ITa-3" value="instruct()" style="whiteSpace=wrap;html=1;" parent="1" vertex="1">
          <mxGeometry x="236" y="110" width="120" height="60" as="geometry" />
        </mxCell>
        <mxCell id="9Txfp773ptTtSIk96ITa-4" value="" style="endArrow=none;html=1;rounded=0;entryX=0.5;entryY=1;entryDx=0;entryDy=0;exitX=0.5;exitY=0;exitDx=0;exitDy=0;" parent="1" source="9Txfp773ptTtSIk96ITa-3" target="9Txfp773ptTtSIk96ITa-1" edge="1">
          <mxGeometry width="50" height="50" relative="1" as="geometry">
            <mxPoint x="206" y="220" as="sourcePoint" />
            <mxPoint x="256" y="170" as="targetPoint" />
          </mxGeometry>
        </mxCell>
        <mxCell id="9Txfp773ptTtSIk96ITa-5" value="" style="verticalLabelPosition=bottom;html=1;verticalAlign=top;strokeWidth=2;shape=mxgraph.lean_mapping.physical_pull;pointerEvents=1;" parent="1" vertex="1">
          <mxGeometry x="286" y="50" width="20" height="10" as="geometry" />
        </mxCell>
        <mxCell id="9Txfp773ptTtSIk96ITa-10" value="" style="endArrow=none;html=1;rounded=0;entryX=0.5;entryY=1;entryDx=0;entryDy=0;exitX=0.5;exitY=0;exitDx=0;exitDy=0;" parent="1" source="9Txfp773ptTtSIk96ITa-2" target="9Txfp773ptTtSIk96ITa-1" edge="1">
          <mxGeometry width="50" height="50" relative="1" as="geometry">
            <mxPoint x="106" y="70" as="sourcePoint" />
            <mxPoint x="256" y="230" as="targetPoint" />
            <Array as="points">
              <mxPoint x="106" y="70" />
              <mxPoint x="296" y="70" />
            </Array>
          </mxGeometry>
        </mxCell>
        <mxCell id="9Txfp773ptTtSIk96ITa-11" value="" style="rhombus;whiteSpace=wrap;html=1;direction=south;" parent="1" vertex="1">
          <mxGeometry x="556" y="90" width="20" height="20" as="geometry" />
        </mxCell>
        <mxCell id="9Txfp773ptTtSIk96ITa-13" value="" style="endArrow=none;html=1;rounded=0;entryX=0.5;entryY=1;entryDx=0;entryDy=0;exitX=0;exitY=0.5;exitDx=0;exitDy=0;" parent="1" source="9Txfp773ptTtSIk96ITa-11" target="9Txfp773ptTtSIk96ITa-1" edge="1">
          <mxGeometry width="50" height="50" relative="1" as="geometry">
            <mxPoint x="546" y="80" as="sourcePoint" />
            <mxPoint x="456" y="230" as="targetPoint" />
            <Array as="points">
              <mxPoint x="566" y="70" />
              <mxPoint x="296" y="70" />
            </Array>
          </mxGeometry>
        </mxCell>
        <mxCell id="9Txfp773ptTtSIk96ITa-15" value="st.restaurant()" style="whiteSpace=wrap;html=1;" parent="1" vertex="1">
          <mxGeometry x="276" y="310" width="120" height="60" as="geometry" />
        </mxCell>
        <mxCell id="9Txfp773ptTtSIk96ITa-16" value="st.cafe()" style="whiteSpace=wrap;html=1;" parent="1" vertex="1">
          <mxGeometry x="406" y="310" width="120" height="60" as="geometry" />
        </mxCell>
        <mxCell id="9Txfp773ptTtSIk96ITa-17" value="st.fast_food()" style="whiteSpace=wrap;html=1;" parent="1" vertex="1">
          <mxGeometry x="546" y="310" width="120" height="60" as="geometry" />
        </mxCell>
        <mxCell id="9Txfp773ptTtSIk96ITa-22" value="3" style="ellipse;whiteSpace=wrap;html=1;" parent="1" vertex="1">
          <mxGeometry x="326" y="410" width="20" height="20" as="geometry" />
        </mxCell>
        <mxCell id="9Txfp773ptTtSIk96ITa-23" value="5" style="ellipse;whiteSpace=wrap;html=1;" parent="1" vertex="1">
          <mxGeometry x="596" y="410" width="20" height="20" as="geometry" />
        </mxCell>
        <mxCell id="9Txfp773ptTtSIk96ITa-24" value="4" style="ellipse;whiteSpace=wrap;html=1;" parent="1" vertex="1">
          <mxGeometry x="456" y="410" width="20" height="20" as="geometry" />
        </mxCell>
        <mxCell id="9Txfp773ptTtSIk96ITa-28" value="" style="endArrow=none;html=1;rounded=0;entryX=0.5;entryY=1;entryDx=0;entryDy=0;exitX=0.5;exitY=0;exitDx=0;exitDy=0;" parent="1" source="9Txfp773ptTtSIk96ITa-22" target="9Txfp773ptTtSIk96ITa-15" edge="1">
          <mxGeometry width="50" height="50" relative="1" as="geometry">
            <mxPoint x="416" y="440" as="sourcePoint" />
            <mxPoint x="466" y="390" as="targetPoint" />
          </mxGeometry>
        </mxCell>
        <mxCell id="9Txfp773ptTtSIk96ITa-29" value="" style="endArrow=none;html=1;rounded=0;entryX=0.5;entryY=1;entryDx=0;entryDy=0;exitX=0.5;exitY=0;exitDx=0;exitDy=0;" parent="1" source="9Txfp773ptTtSIk96ITa-23" target="9Txfp773ptTtSIk96ITa-17" edge="1">
          <mxGeometry width="50" height="50" relative="1" as="geometry">
            <mxPoint x="516" y="450" as="sourcePoint" />
            <mxPoint x="516" y="410" as="targetPoint" />
          </mxGeometry>
        </mxCell>
        <mxCell id="9Txfp773ptTtSIk96ITa-30" value="" style="endArrow=none;html=1;rounded=0;entryX=0.5;entryY=1;entryDx=0;entryDy=0;exitX=0.5;exitY=0;exitDx=0;exitDy=0;" parent="1" source="9Txfp773ptTtSIk96ITa-24" target="9Txfp773ptTtSIk96ITa-16" edge="1">
          <mxGeometry width="50" height="50" relative="1" as="geometry">
            <mxPoint x="356" y="430" as="sourcePoint" />
            <mxPoint x="356" y="390" as="targetPoint" />
          </mxGeometry>
        </mxCell>
        <mxCell id="9Txfp773ptTtSIk96ITa-31" value="Opt" style="html=1;verticalAlign=bottom;startArrow=oval;startFill=1;endArrow=block;startSize=8;curved=0;rounded=0;" parent="1" edge="1">
          <mxGeometry x="0.3333" y="20" width="60" relative="1" as="geometry">
            <mxPoint x="596" y="110" as="sourcePoint" />
            <mxPoint x="596" y="140" as="targetPoint" />
            <mxPoint as="offset" />
          </mxGeometry>
        </mxCell>
        <mxCell id="9Txfp773ptTtSIk96ITa-32" value="select opt" style="whiteSpace=wrap;html=1;" parent="1" vertex="1">
          <mxGeometry x="506" y="140" width="120" height="60" as="geometry" />
        </mxCell>
        <mxCell id="9Txfp773ptTtSIk96ITa-33" value="" style="endArrow=none;html=1;rounded=0;entryX=1;entryY=0.5;entryDx=0;entryDy=0;exitX=0.5;exitY=0;exitDx=0;exitDy=0;" parent="1" source="9Txfp773ptTtSIk96ITa-32" target="9Txfp773ptTtSIk96ITa-11" edge="1">
          <mxGeometry width="50" height="50" relative="1" as="geometry">
            <mxPoint x="516" y="280" as="sourcePoint" />
            <mxPoint x="566" y="230" as="targetPoint" />
          </mxGeometry>
        </mxCell>
        <mxCell id="9Txfp773ptTtSIk96ITa-34" value="" style="endArrow=none;html=1;rounded=0;entryX=0.5;entryY=1;entryDx=0;entryDy=0;exitX=0.5;exitY=0;exitDx=0;exitDy=0;" parent="1" source="9Txfp773ptTtSIk96ITa-16" edge="1">
          <mxGeometry width="50" height="50" relative="1" as="geometry">
            <mxPoint x="516" y="280" as="sourcePoint" />
            <mxPoint x="566" y="200.0000000000001" as="targetPoint" />
            <Array as="points">
              <mxPoint x="466" y="250" />
              <mxPoint x="566" y="250" />
            </Array>
          </mxGeometry>
        </mxCell>
        <mxCell id="9Txfp773ptTtSIk96ITa-35" value="" style="endArrow=none;html=1;rounded=0;exitX=0.5;exitY=0;exitDx=0;exitDy=0;" parent="1" source="9Txfp773ptTtSIk96ITa-17" edge="1">
          <mxGeometry width="50" height="50" relative="1" as="geometry">
            <mxPoint x="576" y="300" as="sourcePoint" />
            <mxPoint x="566" y="200" as="targetPoint" />
            <Array as="points">
              <mxPoint x="606" y="250" />
              <mxPoint x="566" y="250" />
            </Array>
          </mxGeometry>
        </mxCell>
        <mxCell id="9Txfp773ptTtSIk96ITa-36" value="" style="endArrow=none;html=1;rounded=0;exitX=0.5;exitY=0;exitDx=0;exitDy=0;" parent="1" source="9Txfp773ptTtSIk96ITa-15" target="9Txfp773ptTtSIk96ITa-32" edge="1">
          <mxGeometry width="50" height="50" relative="1" as="geometry">
            <mxPoint x="706" y="290" as="sourcePoint" />
            <mxPoint x="566" y="200" as="targetPoint" />
            <Array as="points">
              <mxPoint x="336" y="250" />
              <mxPoint x="566" y="250" />
            </Array>
          </mxGeometry>
        </mxCell>
        <mxCell id="9Txfp773ptTtSIk96ITa-37" value="(+)" style="text;html=1;align=center;verticalAlign=middle;resizable=0;points=[];autosize=1;strokeColor=none;fillColor=none;" parent="1" vertex="1">
          <mxGeometry x="346" y="280" width="40" height="30" as="geometry" />
        </mxCell>
        <mxCell id="9Txfp773ptTtSIk96ITa-38" value="(+)" style="text;html=1;align=center;verticalAlign=middle;resizable=0;points=[];autosize=1;strokeColor=none;fillColor=none;" parent="1" vertex="1">
          <mxGeometry x="606" y="280" width="40" height="30" as="geometry" />
        </mxCell>
        <mxCell id="9Txfp773ptTtSIk96ITa-39" value="(+)" style="text;html=1;align=center;verticalAlign=middle;resizable=0;points=[];autosize=1;strokeColor=none;fillColor=none;" parent="1" vertex="1">
          <mxGeometry x="466" y="280" width="40" height="30" as="geometry" />
        </mxCell>
        <mxCell id="9Txfp773ptTtSIk96ITa-42" value="2" style="ellipse;whiteSpace=wrap;html=1;" parent="1" vertex="1">
          <mxGeometry x="1110" y="30" width="20" height="20" as="geometry" />
        </mxCell>
        <mxCell id="9Txfp773ptTtSIk96ITa-43" value="clear_screen()" style="whiteSpace=wrap;html=1;" parent="1" vertex="1">
          <mxGeometry x="870" y="120" width="120" height="60" as="geometry" />
        </mxCell>
        <mxCell id="9Txfp773ptTtSIk96ITa-44" value="instruct()" style="whiteSpace=wrap;html=1;" parent="1" vertex="1">
          <mxGeometry x="1060" y="120" width="120" height="60" as="geometry" />
        </mxCell>
        <mxCell id="9Txfp773ptTtSIk96ITa-45" value="" style="endArrow=none;html=1;rounded=0;entryX=0.5;entryY=1;entryDx=0;entryDy=0;exitX=0.5;exitY=0;exitDx=0;exitDy=0;" parent="1" source="9Txfp773ptTtSIk96ITa-44" target="9Txfp773ptTtSIk96ITa-42" edge="1">
          <mxGeometry width="50" height="50" relative="1" as="geometry">
            <mxPoint x="1030" y="230" as="sourcePoint" />
            <mxPoint x="1080" y="180" as="targetPoint" />
          </mxGeometry>
        </mxCell>
        <mxCell id="9Txfp773ptTtSIk96ITa-46" value="" style="verticalLabelPosition=bottom;html=1;verticalAlign=top;strokeWidth=2;shape=mxgraph.lean_mapping.physical_pull;pointerEvents=1;" parent="1" vertex="1">
          <mxGeometry x="1110" y="60" width="20" height="10" as="geometry" />
        </mxCell>
        <mxCell id="9Txfp773ptTtSIk96ITa-47" value="" style="endArrow=none;html=1;rounded=0;entryX=0.5;entryY=1;entryDx=0;entryDy=0;exitX=0.5;exitY=0;exitDx=0;exitDy=0;" parent="1" source="9Txfp773ptTtSIk96ITa-43" target="9Txfp773ptTtSIk96ITa-42" edge="1">
          <mxGeometry width="50" height="50" relative="1" as="geometry">
            <mxPoint x="930" y="80" as="sourcePoint" />
            <mxPoint x="1080" y="240" as="targetPoint" />
            <Array as="points">
              <mxPoint x="930" y="80" />
              <mxPoint x="1120" y="80" />
            </Array>
          </mxGeometry>
        </mxCell>
        <mxCell id="9Txfp773ptTtSIk96ITa-48" value="" style="rhombus;whiteSpace=wrap;html=1;direction=south;" parent="1" vertex="1">
          <mxGeometry x="1380" y="100" width="20" height="20" as="geometry" />
        </mxCell>
        <mxCell id="9Txfp773ptTtSIk96ITa-49" value="" style="endArrow=none;html=1;rounded=0;entryX=0.5;entryY=1;entryDx=0;entryDy=0;exitX=0;exitY=0.5;exitDx=0;exitDy=0;" parent="1" source="9Txfp773ptTtSIk96ITa-48" target="9Txfp773ptTtSIk96ITa-42" edge="1">
          <mxGeometry width="50" height="50" relative="1" as="geometry">
            <mxPoint x="1370" y="90" as="sourcePoint" />
            <mxPoint x="1280" y="240" as="targetPoint" />
            <Array as="points">
              <mxPoint x="1390" y="80" />
              <mxPoint x="1120" y="80" />
            </Array>
          </mxGeometry>
        </mxCell>
        <mxCell id="9Txfp773ptTtSIk96ITa-50" value="rw.restaurant()" style="whiteSpace=wrap;html=1;" parent="1" vertex="1">
          <mxGeometry x="1070" y="320" width="120" height="60" as="geometry" />
        </mxCell>
        <mxCell id="9Txfp773ptTtSIk96ITa-51" value="rw.cafe()" style="whiteSpace=wrap;html=1;" parent="1" vertex="1">
          <mxGeometry x="1200" y="320" width="120" height="60" as="geometry" />
        </mxCell>
        <mxCell id="9Txfp773ptTtSIk96ITa-52" value="rw.fast_food()" style="whiteSpace=wrap;html=1;" parent="1" vertex="1">
          <mxGeometry x="1350" y="320" width="120" height="60" as="geometry" />
        </mxCell>
        <mxCell id="9Txfp773ptTtSIk96ITa-53" value="6" style="ellipse;whiteSpace=wrap;html=1;" parent="1" vertex="1">
          <mxGeometry x="1120" y="420" width="20" height="20" as="geometry" />
        </mxCell>
        <mxCell id="9Txfp773ptTtSIk96ITa-54" value="8" style="ellipse;whiteSpace=wrap;html=1;" parent="1" vertex="1">
          <mxGeometry x="1400" y="420" width="20" height="20" as="geometry" />
        </mxCell>
        <mxCell id="9Txfp773ptTtSIk96ITa-55" value="7" style="ellipse;whiteSpace=wrap;html=1;" parent="1" vertex="1">
          <mxGeometry x="1250" y="420" width="20" height="20" as="geometry" />
        </mxCell>
        <mxCell id="9Txfp773ptTtSIk96ITa-56" value="" style="endArrow=none;html=1;rounded=0;entryX=0.5;entryY=1;entryDx=0;entryDy=0;exitX=0.5;exitY=0;exitDx=0;exitDy=0;" parent="1" source="9Txfp773ptTtSIk96ITa-53" target="9Txfp773ptTtSIk96ITa-50" edge="1">
          <mxGeometry width="50" height="50" relative="1" as="geometry">
            <mxPoint x="1210" y="450" as="sourcePoint" />
            <mxPoint x="1260" y="400" as="targetPoint" />
          </mxGeometry>
        </mxCell>
        <mxCell id="9Txfp773ptTtSIk96ITa-57" value="" style="endArrow=none;html=1;rounded=0;entryX=0.5;entryY=1;entryDx=0;entryDy=0;exitX=0.5;exitY=0;exitDx=0;exitDy=0;" parent="1" source="9Txfp773ptTtSIk96ITa-54" target="9Txfp773ptTtSIk96ITa-52" edge="1">
          <mxGeometry width="50" height="50" relative="1" as="geometry">
            <mxPoint x="1310" y="460" as="sourcePoint" />
            <mxPoint x="1310" y="420" as="targetPoint" />
          </mxGeometry>
        </mxCell>
        <mxCell id="9Txfp773ptTtSIk96ITa-58" value="" style="endArrow=none;html=1;rounded=0;entryX=0.5;entryY=1;entryDx=0;entryDy=0;exitX=0.5;exitY=0;exitDx=0;exitDy=0;" parent="1" source="9Txfp773ptTtSIk96ITa-55" target="9Txfp773ptTtSIk96ITa-51" edge="1">
          <mxGeometry width="50" height="50" relative="1" as="geometry">
            <mxPoint x="1150" y="440" as="sourcePoint" />
            <mxPoint x="1150" y="400" as="targetPoint" />
          </mxGeometry>
        </mxCell>
        <mxCell id="9Txfp773ptTtSIk96ITa-59" value="Opt" style="html=1;verticalAlign=bottom;startArrow=oval;startFill=1;endArrow=block;startSize=8;curved=0;rounded=0;" parent="1" edge="1">
          <mxGeometry x="0.3333" y="20" width="60" relative="1" as="geometry">
            <mxPoint x="1420" y="120" as="sourcePoint" />
            <mxPoint x="1420" y="150" as="targetPoint" />
            <mxPoint as="offset" />
          </mxGeometry>
        </mxCell>
        <mxCell id="9Txfp773ptTtSIk96ITa-60" value="select opt" style="whiteSpace=wrap;html=1;" parent="1" vertex="1">
          <mxGeometry x="1330" y="150" width="120" height="60" as="geometry" />
        </mxCell>
        <mxCell id="9Txfp773ptTtSIk96ITa-61" value="" style="endArrow=none;html=1;rounded=0;entryX=1;entryY=0.5;entryDx=0;entryDy=0;exitX=0.5;exitY=0;exitDx=0;exitDy=0;" parent="1" source="9Txfp773ptTtSIk96ITa-60" target="9Txfp773ptTtSIk96ITa-48" edge="1">
          <mxGeometry width="50" height="50" relative="1" as="geometry">
            <mxPoint x="1340" y="290" as="sourcePoint" />
            <mxPoint x="1390" y="240" as="targetPoint" />
          </mxGeometry>
        </mxCell>
        <mxCell id="9Txfp773ptTtSIk96ITa-62" value="" style="endArrow=none;html=1;rounded=0;entryX=0.5;entryY=1;entryDx=0;entryDy=0;exitX=0.5;exitY=0;exitDx=0;exitDy=0;" parent="1" source="9Txfp773ptTtSIk96ITa-51" target="9Txfp773ptTtSIk96ITa-60" edge="1">
          <mxGeometry width="50" height="50" relative="1" as="geometry">
            <mxPoint x="1210" y="330" as="sourcePoint" />
            <mxPoint x="1260" y="250" as="targetPoint" />
            <Array as="points">
              <mxPoint x="1260" y="260" />
              <mxPoint x="1390" y="260" />
            </Array>
          </mxGeometry>
        </mxCell>
        <mxCell id="9Txfp773ptTtSIk96ITa-63" value="" style="endArrow=none;html=1;rounded=0;exitX=0.5;exitY=0;exitDx=0;exitDy=0;" parent="1" source="9Txfp773ptTtSIk96ITa-52" edge="1">
          <mxGeometry width="50" height="50" relative="1" as="geometry">
            <mxPoint x="1400" y="310" as="sourcePoint" />
            <mxPoint x="1390" y="210" as="targetPoint" />
            <Array as="points">
              <mxPoint x="1410" y="260" />
              <mxPoint x="1390" y="260" />
            </Array>
          </mxGeometry>
        </mxCell>
        <mxCell id="9Txfp773ptTtSIk96ITa-64" value="" style="endArrow=none;html=1;rounded=0;exitX=0.5;exitY=0;exitDx=0;exitDy=0;" parent="1" source="9Txfp773ptTtSIk96ITa-50" target="9Txfp773ptTtSIk96ITa-60" edge="1">
          <mxGeometry width="50" height="50" relative="1" as="geometry">
            <mxPoint x="1530" y="300" as="sourcePoint" />
            <mxPoint x="1390" y="210" as="targetPoint" />
            <Array as="points">
              <mxPoint x="1130" y="260" />
              <mxPoint x="1390" y="260" />
            </Array>
          </mxGeometry>
        </mxCell>
        <mxCell id="9Txfp773ptTtSIk96ITa-65" value="(+)" style="text;html=1;align=center;verticalAlign=middle;resizable=0;points=[];autosize=1;strokeColor=none;fillColor=none;" parent="1" vertex="1">
          <mxGeometry x="1140" y="290" width="40" height="30" as="geometry" />
        </mxCell>
        <mxCell id="9Txfp773ptTtSIk96ITa-66" value="(+)" style="text;html=1;align=center;verticalAlign=middle;resizable=0;points=[];autosize=1;strokeColor=none;fillColor=none;" parent="1" vertex="1">
          <mxGeometry x="1400" y="290" width="40" height="30" as="geometry" />
        </mxCell>
        <mxCell id="9Txfp773ptTtSIk96ITa-67" value="(+)" style="text;html=1;align=center;verticalAlign=middle;resizable=0;points=[];autosize=1;strokeColor=none;fillColor=none;" parent="1" vertex="1">
          <mxGeometry x="1260" y="290" width="40" height="30" as="geometry" />
        </mxCell>
        <mxCell id="0_N3YXgIETy0yJ2eF4fa-1" value="handle_invalid_option()" style="whiteSpace=wrap;html=1;" parent="1" vertex="1">
          <mxGeometry x="676" y="310" width="130" height="60" as="geometry" />
        </mxCell>
        <mxCell id="0_N3YXgIETy0yJ2eF4fa-2" value="" style="endArrow=none;html=1;rounded=0;exitX=0.5;exitY=0;exitDx=0;exitDy=0;" parent="1" source="0_N3YXgIETy0yJ2eF4fa-1" edge="1">
          <mxGeometry width="50" height="50" relative="1" as="geometry">
            <mxPoint x="646" y="340" as="sourcePoint" />
            <mxPoint x="566" y="200" as="targetPoint" />
            <Array as="points">
              <mxPoint x="741" y="250" />
              <mxPoint x="566" y="250" />
            </Array>
          </mxGeometry>
        </mxCell>
        <mxCell id="0_N3YXgIETy0yJ2eF4fa-3" value="handle_invalid_option()" style="whiteSpace=wrap;html=1;" parent="1" vertex="1">
          <mxGeometry x="1490" y="320" width="130" height="60" as="geometry" />
        </mxCell>
        <mxCell id="0_N3YXgIETy0yJ2eF4fa-5" value="" style="endArrow=none;html=1;rounded=0;entryX=0.5;entryY=1;entryDx=0;entryDy=0;exitX=0.5;exitY=0;exitDx=0;exitDy=0;" parent="1" source="0_N3YXgIETy0yJ2eF4fa-3" target="9Txfp773ptTtSIk96ITa-60" edge="1">
          <mxGeometry width="50" height="50" relative="1" as="geometry">
            <mxPoint x="1250" y="330" as="sourcePoint" />
            <mxPoint x="1300" y="280" as="targetPoint" />
            <Array as="points">
              <mxPoint x="1555" y="260" />
              <mxPoint x="1390" y="260" />
            </Array>
          </mxGeometry>
        </mxCell>
        <mxCell id="0_N3YXgIETy0yJ2eF4fa-6" value="(+)" style="text;html=1;align=center;verticalAlign=middle;resizable=0;points=[];autosize=1;strokeColor=none;fillColor=none;" parent="1" vertex="1">
          <mxGeometry x="1560" y="290" width="40" height="30" as="geometry" />
        </mxCell>
        <mxCell id="0_N3YXgIETy0yJ2eF4fa-7" value="(+)" style="text;html=1;align=center;verticalAlign=middle;resizable=0;points=[];autosize=1;strokeColor=none;fillColor=none;" parent="1" vertex="1">
          <mxGeometry x="746" y="280" width="40" height="30" as="geometry" />
        </mxCell>
        <mxCell id="W_X_TKPxWKd5VD43D-0Q-1" value="ft.choose_option_r()" style="text;html=1;align=center;verticalAlign=middle;resizable=0;points=[];autosize=1;strokeColor=none;fillColor=none;" parent="1" vertex="1">
          <mxGeometry x="840" y="20" width="130" height="30" as="geometry" />
        </mxCell>
        <mxCell id="W_X_TKPxWKd5VD43D-0Q-2" value="ft.choose_option()" style="text;html=1;align=center;verticalAlign=middle;resizable=0;points=[];autosize=1;strokeColor=none;fillColor=none;" parent="1" vertex="1">
          <mxGeometry x="21" y="20" width="120" height="30" as="geometry" />
        </mxCell>
      </root>
    </mxGraphModel>
  </diagram>
</mxfile>
